<mxfile host="app.diagrams.net" modified="2024-02-28T00:51:32.706Z" agent="Mozilla/5.0 (Macintosh; Intel Mac OS X 10_15_7) AppleWebKit/605.1.15 (KHTML, like Gecko) Version/17.2.1 Safari/605.1.15" etag="Bs5VtvdaR_jp2evlLe4S" version="23.1.7" type="github">
  <diagram name="PÃ¡gina-1" id="Mclto8GBV_WUQoE1y_zK">
    <mxGraphModel dx="2624" dy="1181" grid="1" gridSize="10" guides="1" tooltips="1" connect="1" arrows="1" fold="1" page="1" pageScale="1" pageWidth="850" pageHeight="1100" math="0" shadow="0">
      <root>
        <mxCell id="0" />
        <mxCell id="1" parent="0" />
        <mxCell id="pMskK8Gdg5I1H2CDrdpy-46" style="edgeStyle=orthogonalEdgeStyle;rounded=0;orthogonalLoop=1;jettySize=auto;html=1;" edge="1" parent="1" source="pMskK8Gdg5I1H2CDrdpy-40" target="pMskK8Gdg5I1H2CDrdpy-41">
          <mxGeometry relative="1" as="geometry" />
        </mxCell>
        <mxCell id="pMskK8Gdg5I1H2CDrdpy-40" value="START" style="rhombus;whiteSpace=wrap;html=1;" vertex="1" parent="1">
          <mxGeometry x="310" y="120" width="80" height="80" as="geometry" />
        </mxCell>
        <mxCell id="pMskK8Gdg5I1H2CDrdpy-48" style="edgeStyle=orthogonalEdgeStyle;rounded=0;orthogonalLoop=1;jettySize=auto;html=1;" edge="1" parent="1" source="pMskK8Gdg5I1H2CDrdpy-41" target="pMskK8Gdg5I1H2CDrdpy-42">
          <mxGeometry relative="1" as="geometry" />
        </mxCell>
        <mxCell id="pMskK8Gdg5I1H2CDrdpy-41" value="First Cinematic" style="shape=process;whiteSpace=wrap;html=1;backgroundOutline=1;" vertex="1" parent="1">
          <mxGeometry x="290" y="240" width="120" height="60" as="geometry" />
        </mxCell>
        <mxCell id="pMskK8Gdg5I1H2CDrdpy-49" style="edgeStyle=orthogonalEdgeStyle;rounded=0;orthogonalLoop=1;jettySize=auto;html=1;" edge="1" parent="1" source="pMskK8Gdg5I1H2CDrdpy-42" target="pMskK8Gdg5I1H2CDrdpy-43">
          <mxGeometry relative="1" as="geometry" />
        </mxCell>
        <mxCell id="pMskK8Gdg5I1H2CDrdpy-42" value="Warning Screen" style="shape=process;whiteSpace=wrap;html=1;backgroundOutline=1;" vertex="1" parent="1">
          <mxGeometry x="290" y="330" width="120" height="60" as="geometry" />
        </mxCell>
        <mxCell id="pMskK8Gdg5I1H2CDrdpy-55" style="edgeStyle=orthogonalEdgeStyle;rounded=0;orthogonalLoop=1;jettySize=auto;html=1;entryX=0.5;entryY=0;entryDx=0;entryDy=0;" edge="1" parent="1" source="pMskK8Gdg5I1H2CDrdpy-43" target="pMskK8Gdg5I1H2CDrdpy-50">
          <mxGeometry relative="1" as="geometry" />
        </mxCell>
        <mxCell id="pMskK8Gdg5I1H2CDrdpy-63" style="edgeStyle=orthogonalEdgeStyle;rounded=0;orthogonalLoop=1;jettySize=auto;html=1;entryX=0.5;entryY=0;entryDx=0;entryDy=0;" edge="1" parent="1" source="pMskK8Gdg5I1H2CDrdpy-43" target="pMskK8Gdg5I1H2CDrdpy-60">
          <mxGeometry relative="1" as="geometry" />
        </mxCell>
        <mxCell id="pMskK8Gdg5I1H2CDrdpy-71" style="edgeStyle=orthogonalEdgeStyle;rounded=0;orthogonalLoop=1;jettySize=auto;html=1;entryX=0.5;entryY=0;entryDx=0;entryDy=0;" edge="1" parent="1" source="pMskK8Gdg5I1H2CDrdpy-43" target="pMskK8Gdg5I1H2CDrdpy-69">
          <mxGeometry relative="1" as="geometry" />
        </mxCell>
        <mxCell id="pMskK8Gdg5I1H2CDrdpy-43" value="Main Menu" style="rhombus;whiteSpace=wrap;html=1;" vertex="1" parent="1">
          <mxGeometry x="305" y="430" width="90" height="80" as="geometry" />
        </mxCell>
        <mxCell id="pMskK8Gdg5I1H2CDrdpy-56" style="edgeStyle=orthogonalEdgeStyle;rounded=0;orthogonalLoop=1;jettySize=auto;html=1;" edge="1" parent="1" source="pMskK8Gdg5I1H2CDrdpy-50" target="pMskK8Gdg5I1H2CDrdpy-51">
          <mxGeometry relative="1" as="geometry" />
        </mxCell>
        <mxCell id="pMskK8Gdg5I1H2CDrdpy-50" value="New Game" style="shape=process;whiteSpace=wrap;html=1;backgroundOutline=1;" vertex="1" parent="1">
          <mxGeometry x="70" y="530" width="120" height="60" as="geometry" />
        </mxCell>
        <mxCell id="pMskK8Gdg5I1H2CDrdpy-57" style="edgeStyle=orthogonalEdgeStyle;rounded=0;orthogonalLoop=1;jettySize=auto;html=1;" edge="1" parent="1" source="pMskK8Gdg5I1H2CDrdpy-51" target="pMskK8Gdg5I1H2CDrdpy-52">
          <mxGeometry relative="1" as="geometry" />
        </mxCell>
        <mxCell id="pMskK8Gdg5I1H2CDrdpy-51" value="Gameplay Scene" style="shape=process;whiteSpace=wrap;html=1;backgroundOutline=1;" vertex="1" parent="1">
          <mxGeometry x="70" y="620" width="130" height="60" as="geometry" />
        </mxCell>
        <mxCell id="pMskK8Gdg5I1H2CDrdpy-58" style="edgeStyle=orthogonalEdgeStyle;rounded=0;orthogonalLoop=1;jettySize=auto;html=1;" edge="1" parent="1" source="pMskK8Gdg5I1H2CDrdpy-52" target="pMskK8Gdg5I1H2CDrdpy-53">
          <mxGeometry relative="1" as="geometry" />
        </mxCell>
        <mxCell id="pMskK8Gdg5I1H2CDrdpy-59" style="edgeStyle=orthogonalEdgeStyle;rounded=0;orthogonalLoop=1;jettySize=auto;html=1;" edge="1" parent="1" source="pMskK8Gdg5I1H2CDrdpy-52">
          <mxGeometry relative="1" as="geometry">
            <mxPoint x="210.00000000000023" y="849.9999999999998" as="targetPoint" />
          </mxGeometry>
        </mxCell>
        <mxCell id="pMskK8Gdg5I1H2CDrdpy-52" value="Reach goal?" style="rhombus;whiteSpace=wrap;html=1;" vertex="1" parent="1">
          <mxGeometry x="70" y="720" width="120" height="80" as="geometry" />
        </mxCell>
        <mxCell id="pMskK8Gdg5I1H2CDrdpy-66" style="edgeStyle=orthogonalEdgeStyle;rounded=0;orthogonalLoop=1;jettySize=auto;html=1;entryX=0;entryY=0.5;entryDx=0;entryDy=0;" edge="1" parent="1" source="pMskK8Gdg5I1H2CDrdpy-53" target="pMskK8Gdg5I1H2CDrdpy-43">
          <mxGeometry relative="1" as="geometry">
            <Array as="points">
              <mxPoint x="-10" y="880" />
              <mxPoint x="-10" y="470" />
            </Array>
          </mxGeometry>
        </mxCell>
        <mxCell id="pMskK8Gdg5I1H2CDrdpy-53" value="Win Scene" style="shape=process;whiteSpace=wrap;html=1;backgroundOutline=1;" vertex="1" parent="1">
          <mxGeometry x="-10" y="850" width="120" height="60" as="geometry" />
        </mxCell>
        <mxCell id="pMskK8Gdg5I1H2CDrdpy-67" style="edgeStyle=orthogonalEdgeStyle;rounded=0;orthogonalLoop=1;jettySize=auto;html=1;entryX=0;entryY=0.5;entryDx=0;entryDy=0;" edge="1" parent="1" source="pMskK8Gdg5I1H2CDrdpy-54" target="pMskK8Gdg5I1H2CDrdpy-43">
          <mxGeometry relative="1" as="geometry">
            <Array as="points">
              <mxPoint x="290" y="880" />
              <mxPoint x="290" y="470" />
            </Array>
          </mxGeometry>
        </mxCell>
        <mxCell id="pMskK8Gdg5I1H2CDrdpy-54" value="Lose Scene" style="shape=process;whiteSpace=wrap;html=1;backgroundOutline=1;" vertex="1" parent="1">
          <mxGeometry x="150" y="850" width="120" height="60" as="geometry" />
        </mxCell>
        <mxCell id="pMskK8Gdg5I1H2CDrdpy-64" style="edgeStyle=orthogonalEdgeStyle;rounded=0;orthogonalLoop=1;jettySize=auto;html=1;" edge="1" parent="1" source="pMskK8Gdg5I1H2CDrdpy-60" target="pMskK8Gdg5I1H2CDrdpy-61">
          <mxGeometry relative="1" as="geometry" />
        </mxCell>
        <mxCell id="pMskK8Gdg5I1H2CDrdpy-65" style="edgeStyle=orthogonalEdgeStyle;rounded=0;orthogonalLoop=1;jettySize=auto;html=1;entryX=0.75;entryY=0;entryDx=0;entryDy=0;" edge="1" parent="1" source="pMskK8Gdg5I1H2CDrdpy-60" target="pMskK8Gdg5I1H2CDrdpy-62">
          <mxGeometry relative="1" as="geometry" />
        </mxCell>
        <mxCell id="pMskK8Gdg5I1H2CDrdpy-60" value="Options" style="rhombus;whiteSpace=wrap;html=1;" vertex="1" parent="1">
          <mxGeometry x="415" y="530" width="80" height="80" as="geometry" />
        </mxCell>
        <mxCell id="pMskK8Gdg5I1H2CDrdpy-61" value="Change Volume" style="shape=process;whiteSpace=wrap;html=1;backgroundOutline=1;size=0.16666666666666666;" vertex="1" parent="1">
          <mxGeometry x="320" y="660" width="120" height="60" as="geometry" />
        </mxCell>
        <mxCell id="pMskK8Gdg5I1H2CDrdpy-68" style="edgeStyle=orthogonalEdgeStyle;rounded=0;orthogonalLoop=1;jettySize=auto;html=1;" edge="1" parent="1" source="pMskK8Gdg5I1H2CDrdpy-62" target="pMskK8Gdg5I1H2CDrdpy-43">
          <mxGeometry relative="1" as="geometry">
            <Array as="points">
              <mxPoint x="550" y="760" />
              <mxPoint x="290" y="760" />
              <mxPoint x="290" y="470" />
            </Array>
          </mxGeometry>
        </mxCell>
        <mxCell id="pMskK8Gdg5I1H2CDrdpy-62" value="Return to main menu" style="shape=process;whiteSpace=wrap;html=1;backgroundOutline=1;size=0.16666666666666666;" vertex="1" parent="1">
          <mxGeometry x="485" y="650" width="130" height="70" as="geometry" />
        </mxCell>
        <mxCell id="pMskK8Gdg5I1H2CDrdpy-72" style="edgeStyle=orthogonalEdgeStyle;rounded=0;orthogonalLoop=1;jettySize=auto;html=1;entryX=0.5;entryY=0;entryDx=0;entryDy=0;" edge="1" parent="1" source="pMskK8Gdg5I1H2CDrdpy-69" target="pMskK8Gdg5I1H2CDrdpy-70">
          <mxGeometry relative="1" as="geometry" />
        </mxCell>
        <mxCell id="pMskK8Gdg5I1H2CDrdpy-69" value="Credits" style="shape=process;whiteSpace=wrap;html=1;backgroundOutline=1;" vertex="1" parent="1">
          <mxGeometry x="670" y="520" width="120" height="60" as="geometry" />
        </mxCell>
        <mxCell id="pMskK8Gdg5I1H2CDrdpy-73" style="edgeStyle=orthogonalEdgeStyle;rounded=0;orthogonalLoop=1;jettySize=auto;html=1;entryX=0;entryY=0.5;entryDx=0;entryDy=0;" edge="1" parent="1" source="pMskK8Gdg5I1H2CDrdpy-70" target="pMskK8Gdg5I1H2CDrdpy-43">
          <mxGeometry relative="1" as="geometry">
            <mxPoint x="289.9999999999998" y="479.9999999999998" as="targetPoint" />
            <Array as="points">
              <mxPoint x="770" y="760" />
              <mxPoint x="291" y="760" />
              <mxPoint x="291" y="480" />
              <mxPoint x="305" y="480" />
            </Array>
          </mxGeometry>
        </mxCell>
        <mxCell id="pMskK8Gdg5I1H2CDrdpy-70" value="Return to main menu" style="shape=process;whiteSpace=wrap;html=1;backgroundOutline=1;" vertex="1" parent="1">
          <mxGeometry x="670" y="650" width="120" height="60" as="geometry" />
        </mxCell>
      </root>
    </mxGraphModel>
  </diagram>
</mxfile>
